<svg xmlns="http://www.w3.org/2000/svg" viewBox="0 0 45.34 43.5"><defs><style>.cls-1{fill:none;stroke:#fff;stroke-miterlimit:10;stroke-width:4px;}</style></defs><title>icon star initial</title><g id="Layer_2" data-name="Layer 2"><g id="Layer_1-2" data-name="Layer 1"><path class="cls-1" d="M24.37,3.06l4.92,10a1.89,1.89,0,0,0,1.43,1l11,1.6a1.89,1.89,0,0,1,1,3.23l-8,7.76a1.89,1.89,0,0,0-.54,1.68l1.88,11a1.89,1.89,0,0,1-2.75,2l-9.84-5.17a1.89,1.89,0,0,0-1.76,0l-9.84,5.17a1.89,1.89,0,0,1-2.75-2l1.88-11a1.89,1.89,0,0,0-.54-1.68l-8-7.76a1.89,1.89,0,0,1,1-3.23l11-1.6a1.89,1.89,0,0,0,1.43-1L21,3.06A1.89,1.89,0,0,1,24.37,3.06Z"/></g></g></svg>