<svg xmlns="http://www.w3.org/2000/svg" viewBox="0 0 665.75 413.24"><defs><style>.cls-1,.cls-2{fill:none;stroke:#424242;stroke-miterlimit:10;}.cls-1{stroke-width:1.65px;}.cls-2{stroke-width:1.05px;}.cls-3{fill:#00c853;}.cls-4{font-size:20.4px;}.cls-4,.cls-6,.cls-7{fill:#fff;font-family:PTSans-Regular, PT Sans;}.cls-5{letter-spacing:-0.05em;}.cls-6,.cls-7{font-size:22.67px;}.cls-7{letter-spacing:-0.05em;}</style></defs><title>icon Plane 2</title><g id="Layer_2" data-name="Layer 2"><g id="Layer_1-2" data-name="Layer 1"><path class="cls-1" d="M193.37,182.6c19.14-.17,42.27,1,63.09,5,34.71,6.61,284.28,34.71,322.3,51.24s59.22,29.82,62.8,43c2.48,9.09-7.43,12.4-14.87,14.87-6.47,2.16-44.63,9.92-66.11,6.62S223.4,235.51,223.4,235.51s-33.05-8.26-56.19-23.14S138.28,194,141.58,189c0,0,.26-1.09,6.84-2.54"/><path class="cls-1" d="M291.47,249.38s64.57-3.91,134.16,27.21C425.63,276.59,329.4,274.9,291.47,249.38Z"/><path class="cls-1" d="M304.69,256.44l-45.24,36.72L72.79,385.21s-34.08,13.73-61.54,9.66c0,0,39.67,11.7,55.44,5.09s214.62-75.27,214.62-75.27l110-50.15"/><polyline class="cls-1" points="346.54 200.07 364.56 168.51 384.31 62.17 384.31 41.15 379.69 17.61 384.31 19.72 400.71 49.98 422.14 167.67 425.63 210.78"/><polyline class="cls-1" points="110.67 374 269.46 296.61 309.43 262.91"/><polyline class="cls-1" points="358.55 195.96 376.65 166.89 388.28 50.24"/><polyline class="cls-1" points="413.85 209.13 408.64 164.79 422.36 170.41"/><polyline class="cls-1" points="363.86 271.35 278.48 314.94 285.56 322.76"/><polyline class="cls-1" points="281.32 324.69 273.98 317.04 61.66 396.62 66.69 399.96"/><polyline class="cls-1" points="161.36 208.62 82.09 240.6 69.18 241.8 143.36 195.96"/><line class="cls-1" x1="147.09" y1="202.92" x2="84.91" y2="236.49"/><polygon class="cls-1" points="148.42 186.46 93.9 115.31 110.67 115.31 200.22 188.17 148.42 186.46"/><line class="cls-1" x1="102.98" y1="119.85" x2="156.74" y2="183.87"/><polyline class="cls-1" points="171.1 164.48 187.79 132.03 195.68 136.81 188.78 178.87"/><line class="cls-1" x1="187.79" y1="138.72" x2="174.43" y2="167.19"/><path class="cls-1" d="M632.07,294.75s-3.72-11.63,7.12-18.22"/><path class="cls-1" d="M616.73,257.58s1.66,11.23-21,14l-7.26,9.08,8.62,4.08,12.71-9.53s23.26.68,15.26-12.26"/><ellipse class="cls-1" cx="373.14" cy="341.57" rx="16.93" ry="8.58" transform="translate(-63.4 597.18) rotate(-72.82)"/><ellipse class="cls-1" cx="373.14" cy="341.57" rx="21.75" ry="12.53" transform="translate(-63.4 597.18) rotate(-72.82)"/><path class="cls-1" d="M379.56,320.79s-27.08-13.9-46.94-9.47S310.26,325,312.38,334.46s13.06,24.16,54.34,27.89"/><path class="cls-1" d="M301.59,315.45,314,321.37s17-5.9,34.66,1.39c0,0,8.59,4,9,.48s-16.64-11-29.95-10.62L318,308"/><ellipse class="cls-1" cx="477.47" cy="194.1" rx="12.91" ry="6.54" transform="translate(151.02 592.94) rotate(-72.82)"/><ellipse class="cls-1" cx="477.47" cy="194.1" rx="16.58" ry="9.55" transform="translate(151.02 592.94) rotate(-72.82)"/><path class="cls-1" d="M481.62,178.09s-25-8-39.51-2.12-15.2,13.27-12.37,20.16,13,16.64,44.81,14.14"/><path class="cls-1" d="M423.13,179.94l8,3.1s9.83-7.12,27.32-4.64c0,0,6.38.95,4.14-1.18s-11.46-3.18-13.35-3.42l-27.66-9-13-5L394,47.49,400.71,50"/><path class="cls-1" d="M550.46,301.45s-.42,6.25,5.35,7,7.8-3,8.25-4.78"/><path class="cls-1" d="M565,293H554.63a2.27,2.27,0,0,1-2.26-2.1L551,272.49a2.27,2.27,0,0,1,2.26-2.43h10.39a2.27,2.27,0,0,1,2.26,2.1l1.37,18.46A2.27,2.27,0,0,1,565,293Z"/><path class="cls-2" d="M276.77,224.43l5.59,1.47a2.44,2.44,0,0,1,1.82,2.44,38.68,38.68,0,0,0,1,10.45,2.45,2.45,0,0,1-2.81,3.06l-5.14-1a2.45,2.45,0,0,1-1.86-1.63c-.9-2.66-2.63-8.66-1.58-13.1A2.42,2.42,0,0,1,276.77,224.43Z"/><circle class="cls-2" cx="205.36" cy="219.01" r="2.16"/><circle class="cls-2" cx="224.7" cy="223.33" r="2.16"/><circle class="cls-2" cx="237.91" cy="225.95" r="2.16"/><circle class="cls-2" cx="250.76" cy="228.8" r="2.16"/><circle class="cls-2" cx="263.59" cy="231.38" r="2.16"/><circle class="cls-2" cx="211.81" cy="220.43" r="2.16"/><circle class="cls-2" cx="218.03" cy="221.9" r="2.16"/><circle class="cls-2" cx="231.29" cy="224.47" r="2.16"/><circle class="cls-2" cx="244.24" cy="227.42" r="2.16"/><circle class="cls-2" cx="257.31" cy="229.95" r="2.16"/><circle class="cls-2" cx="270.03" cy="233.12" r="2.16"/><circle class="cls-2" cx="294.89" cy="236.55" r="2.16"/><circle class="cls-2" cx="308.19" cy="238.71" r="2.16"/><circle class="cls-2" cx="288.53" cy="235.28" r="2.16"/><circle class="cls-2" cx="301.59" cy="237.45" r="2.16"/><circle class="cls-2" cx="314.5" cy="239.61" r="2.16"/><circle class="cls-2" cx="327.82" cy="242.22" r="2.16"/><circle class="cls-2" cx="340.89" cy="244.38" r="2.16"/><circle class="cls-2" cx="353.59" cy="247.06" r="2.16"/><circle class="cls-2" cx="366.78" cy="249.23" r="2.16"/><circle class="cls-2" cx="379.96" cy="251.75" r="2.16"/><circle class="cls-2" cx="392.52" cy="253.91" r="2.16"/><circle class="cls-2" cx="406" cy="256.44" r="2.16"/><circle class="cls-2" cx="419" cy="258.89" r="2.16"/><circle class="cls-2" cx="432.05" cy="260.77" r="2.16"/><circle class="cls-2" cx="445.3" cy="262.91" r="2.16"/><circle class="cls-2" cx="458.15" cy="265.07" r="2.16"/><circle class="cls-2" cx="471.45" cy="267.68" r="2.16"/><circle class="cls-2" cx="484.17" cy="269.84" r="2.16"/><circle class="cls-2" cx="497.36" cy="272" r="2.16"/><circle class="cls-2" cx="510.09" cy="274.52" r="2.16"/><circle class="cls-2" cx="523.3" cy="276.93" r="2.16"/><circle class="cls-2" cx="536.31" cy="279.39" r="2.16"/><circle class="cls-2" cx="321.36" cy="240.87" r="2.16"/><circle class="cls-2" cx="334.36" cy="243.33" r="2.16"/><circle class="cls-2" cx="347.2" cy="245.5" r="2.16"/><circle class="cls-2" cx="360.21" cy="248.47" r="2.16"/><circle class="cls-2" cx="373.45" cy="250.63" r="2.16"/><circle class="cls-2" cx="385.95" cy="252.79" r="2.16"/><circle class="cls-2" cx="399.51" cy="255.21" r="2.16"/><circle class="cls-2" cx="412.78" cy="257.62" r="2.16"/><circle class="cls-2" cx="425.28" cy="259.78" r="2.16"/><circle class="cls-2" cx="438.72" cy="261.94" r="2.16"/><circle class="cls-2" cx="452.28" cy="263.85" r="2.16"/><circle class="cls-2" cx="464.6" cy="266.27" r="2.16"/><circle class="cls-2" cx="477.84" cy="268.43" r="2.16"/><circle class="cls-2" cx="490.71" cy="271.19" r="2.16"/><circle class="cls-2" cx="504.04" cy="273.35" r="2.16"/><circle class="cls-2" cx="517.02" cy="275.51" r="2.16"/><circle class="cls-2" cx="529.86" cy="277.68" r="2.16"/><circle class="cls-2" cx="543.25" cy="280.35" r="2.16"/><circle class="cls-3" cx="340.89" cy="352.29" r="17.61" transform="translate(-149.26 344.23) rotate(-45)"/><circle class="cls-3" cx="278.48" cy="238.71" r="5.65"/><circle class="cls-3" cx="105.71" cy="222.6" r="5.65"/><circle class="cls-3" cx="135.51" cy="163.6" r="5.65"/><circle class="cls-3" cx="421.16" cy="190.3" r="5.65"/><circle class="cls-3" cx="361.6" cy="181.31" r="5.65"/><circle class="cls-3" cx="121.66" cy="128.75" r="5.65"/><circle class="cls-3" cx="384.06" cy="19.26" r="5.65"/><circle class="cls-3" cx="519.18" cy="224.18" r="5.65"/><circle class="cls-3" cx="411.48" cy="126.59" r="5.65"/><circle class="cls-3" cx="376.97" cy="123.1" r="5.65"/><circle class="cls-3" cx="382.63" cy="74.03" r="5.65"/><circle class="cls-3" cx="640.97" cy="285.64" r="5.65"/><circle class="cls-3" cx="607.56" cy="298.7" r="5.65"/><circle class="cls-3" cx="621.04" cy="264.1" r="5.65"/><circle class="cls-3" cx="462.02" cy="283.26" r="13.42" transform="translate(-64.97 409.66) rotate(-45)"/><circle class="cls-3" cx="641.95" cy="287.59" r="13.42" transform="translate(-15.33 538.16) rotate(-45)"/><circle class="cls-3" cx="607.56" cy="299.06" r="13.42" transform="translate(-33.52 517.21) rotate(-45)"/><circle class="cls-3" cx="560.22" cy="310.45" r="13.42" transform="translate(-55.44 487.07) rotate(-45)"/><circle class="cls-3" cx="621.04" cy="262.93" r="13.42" transform="translate(-4.02 516.15) rotate(-45)"/><circle class="cls-3" cx="519.18" cy="224.18" r="13.42" transform="translate(-6.46 432.78) rotate(-45)"/><circle class="cls-3" cx="421.16" cy="190.3" r="13.42" transform="translate(-11.21 353.55) rotate(-45)"/><circle class="cls-3" cx="278.48" cy="238.71" r="13.42" transform="translate(-87.23 266.83) rotate(-45)"/><circle class="cls-3" cx="105.71" cy="222.31" r="13.42" transform="translate(-126.23 139.86) rotate(-45)"/><circle class="cls-3" cx="135.51" cy="163.31" r="13.42" transform="translate(-75.79 143.65) rotate(-45)"/><circle class="cls-3" cx="361.6" cy="181.31" r="13.42" transform="translate(-22.3 308.8) rotate(-45)"/><circle class="cls-3" cx="376.97" cy="123.1" r="13.42" transform="translate(23.37 302.62) rotate(-45)"/><circle class="cls-3" cx="382.63" cy="74.03" r="13.42" transform="translate(59.72 292.24) rotate(-45)"/><circle class="cls-3" cx="411.48" cy="126.59" r="13.42" transform="translate(31.01 328.04) rotate(-45)"/><text class="cls-4" transform="translate(328.64 359.91)">18</text><circle class="cls-3" cx="462.02" cy="284.69" r="17.61" transform="translate(-65.99 410.08) rotate(-45)"/><text class="cls-4" transform="translate(450.9 292.32)">12</text><circle class="cls-3" cx="125.06" cy="123.09" r="17.61" transform="translate(-50.41 124.48) rotate(-45)"/><text class="cls-4" transform="translate(113.94 130.71)">13</text><circle class="cls-3" cx="135.51" cy="164.96" r="17.61" transform="translate(-76.96 144.14) rotate(-45)"/><text class="cls-4" transform="translate(124.39 172.59)">14</text><circle class="cls-3" cx="105.8" cy="223.33" r="17.61" transform="translate(-126.93 140.22) rotate(-45)"/><text class="cls-4" transform="translate(94.68 230.96)">15</text><circle class="cls-3" cx="279.36" cy="240.87" r="17.61" transform="translate(-88.5 268.09) rotate(-45)"/><text class="cls-4" transform="translate(268.25 248.5)">16</text><circle class="cls-3" cx="19.26" cy="395.62" r="17.61" transform="translate(-274.11 129.49) rotate(-45)"/><text class="cls-4" transform="translate(8.69 403.25)">1<tspan class="cls-5" x="11.12" y="0">7</tspan></text><circle class="cls-3" cx="560.22" cy="310.45" r="17.61" transform="translate(-55.44 487.07) rotate(-45)"/><text class="cls-4" transform="translate(549.11 318.08)">11</text><circle class="cls-3" cx="607.56" cy="299.06" r="17.61" transform="translate(-33.52 517.21) rotate(-45)"/><text class="cls-4" transform="translate(596.45 306.69)">10</text><circle class="cls-3" cx="646.49" cy="287.24" r="17.61" transform="translate(-13.76 541.27) rotate(-45)"/><text class="cls-6" transform="translate(640.31 295.32)">9</text><circle class="cls-3" cx="619.77" cy="258.92" r="17.61" transform="translate(-1.56 514.08) rotate(-45)"/><text class="cls-6" transform="translate(613.6 267)">8</text><circle class="cls-3" cx="518.86" cy="223.12" r="17.61" transform="translate(-5.8 432.24) rotate(-45)"/><text class="cls-7" transform="translate(513.3 231.19)">7</text><circle class="cls-3" cx="421.16" cy="190.3" r="17.61" transform="translate(-11.21 353.55) rotate(-45)"/><text class="cls-6" transform="translate(414.99 198.38)">6</text><circle class="cls-3" cx="361.6" cy="182.51" r="17.61" transform="translate(-23.15 309.15) rotate(-45)"/><text class="cls-6" transform="translate(355.42 190.59)">5</text><circle class="cls-3" cx="376.97" cy="123.1" r="17.61" transform="translate(23.37 302.62) rotate(-45)"/><text class="cls-6" transform="translate(370.8 131.18)">4</text><circle class="cls-3" cx="415.51" cy="126.59" r="17.61" transform="translate(32.19 330.89) rotate(-45)"/><text class="cls-6" transform="translate(409.34 134.66)">3</text><circle class="cls-3" cx="382.63" cy="74.03" r="17.61" transform="translate(59.72 292.24) rotate(-45)"/><text class="cls-6" transform="translate(376.45 82.11)">2</text><circle class="cls-3" cx="382.63" cy="17.61" r="17.61" transform="translate(99.61 275.72) rotate(-45)"/><text class="cls-6" transform="translate(376.45 25.69)">1</text></g></g></svg>