<svg xmlns="http://www.w3.org/2000/svg" xmlns:xlink="http://www.w3.org/1999/xlink" viewBox="0 0 157.76 179.49"><defs><style>.cls-1{fill:url(#linear-gradient);}.cls-2{fill:url(#linear-gradient-2);}</style><linearGradient id="linear-gradient" x1="60.78" y1="1185.32" x2="121.01" y2="1066.62" gradientTransform="matrix(1, 0, 0, -1, 0, 1212.54)" gradientUnits="userSpaceOnUse"><stop offset="0" stop-color="#00a7db"/><stop offset="0.18" stop-color="#029dd5"/><stop offset="0.48" stop-color="#0981c5"/><stop offset="0.86" stop-color="#1355aa"/><stop offset="1" stop-color="#1744a0"/></linearGradient><linearGradient id="linear-gradient-2" x1="14.49" y1="1161.91" x2="74.63" y2="1043.38" xlink:href="#linear-gradient"/></defs><title>App logo login1</title><g id="Layer_2" data-name="Layer 2"><g id="Flow"><g id="Layer_2-2" data-name="Layer 2"><g id="Layer_2-2-2" data-name="Layer 2-2"><path d="M15.19,168.45H7.45L6,172.18H0l8.31-21.52h6.13l8.14,21.52h-6Zm-1.51-4.27-2.3-6.85h-.06L9,164.17Z"/><path d="M28.68,157.5v1.66h.06a4.48,4.48,0,0,1,1.87-1.61A6.14,6.14,0,0,1,33.2,157a7,7,0,0,1,3,.63,7.4,7.4,0,0,1,2.38,1.7,7.5,7.5,0,0,1,1.51,2.52,7.93,7.93,0,0,1,.54,3,8.52,8.52,0,0,1-.51,3,7.9,7.9,0,0,1-1.54,2.51,7.14,7.14,0,0,1-2.35,1.69,7.29,7.29,0,0,1-3,.6,6.72,6.72,0,0,1-2.52-.49,5,5,0,0,1-2-1.39v8.7H23.48v-22Zm3.19,4a3.31,3.31,0,0,0-1.77.46,2.7,2.7,0,0,0-1.18,1.19,3.39,3.39,0,0,0-.4,1.66,3.15,3.15,0,0,0,.9,2.34,3.25,3.25,0,0,0,2.46.93,3.25,3.25,0,0,0,2.46-.93,3.15,3.15,0,0,0,.89-2.34,3.54,3.54,0,0,0-.39-1.66A2.81,2.81,0,0,0,33.65,162,3.31,3.31,0,0,0,31.88,161.51Z"/><path d="M47.67,157.5v1.66h.06a4.48,4.48,0,0,1,1.87-1.61,6.14,6.14,0,0,1,2.58-.53,7,7,0,0,1,3,.63,7.4,7.4,0,0,1,2.38,1.7,7.5,7.5,0,0,1,1.51,2.52,7.93,7.93,0,0,1,.54,3,8.52,8.52,0,0,1-.51,3,7.9,7.9,0,0,1-1.54,2.51,7.14,7.14,0,0,1-2.35,1.69,7.29,7.29,0,0,1-3,.6,6.72,6.72,0,0,1-2.52-.49,5,5,0,0,1-2-1.39v8.7H42.46v-22Zm3.19,4a3.31,3.31,0,0,0-1.77.46,2.7,2.7,0,0,0-1.18,1.19,3.39,3.39,0,0,0-.4,1.66,3.15,3.15,0,0,0,.9,2.34,3.72,3.72,0,0,0,4.93,0,3.15,3.15,0,0,0,.89-2.34,3.54,3.54,0,0,0-.39-1.66A2.81,2.81,0,0,0,52.65,162,3.31,3.31,0,0,0,50.86,161.51Z"/><path d="M65.31,157.5,68.83,165l3.51-7.51H78.2l-7.65,14.68H67.17L59.46,157.5Z"/><path d="M81.51,149a2.9,2.9,0,0,1,1.47.4,2.69,2.69,0,0,1,1,1,2.86,2.86,0,0,1,.4,1.46,2.87,2.87,0,0,1-4.33,2.46A2.64,2.64,0,0,1,79,153.27a2.94,2.94,0,0,1-.4-1.44,3,3,0,0,1,.4-1.46,2.68,2.68,0,0,1,1.07-1A2.87,2.87,0,0,1,81.51,149Zm2.62,8.53v14.65H78.9V157.5Z"/><path d="M103.07,157.5v14.65H97.85v-1.61h-.09a4.34,4.34,0,0,1-1.86,1.58,6.25,6.25,0,0,1-2.58.54,7,7,0,0,1-3.78-1.11,7.21,7.21,0,0,1-2.66-2.86,8.21,8.21,0,0,1-.95-3.87,7.85,7.85,0,0,1,.54-3,7.35,7.35,0,0,1,3.86-4.21,7.08,7.08,0,0,1,3-.6,7.22,7.22,0,0,1,2.56.47,5.24,5.24,0,0,1,2,1.43V157.5Zm-8.39,4a3.18,3.18,0,0,0-1.77.46,2.7,2.7,0,0,0-1.19,1.24,3.39,3.39,0,0,0-.4,1.66,3.15,3.15,0,0,0,.9,2.34,3.72,3.72,0,0,0,4.93,0,3.16,3.16,0,0,0,.89-2.34,3.54,3.54,0,0,0-.39-1.66A2.82,2.82,0,0,0,96.45,162a3.18,3.18,0,0,0-1.78-.51Z"/><path d="M111.66,161.83v10.35h-5.21V161.83h-1.69V157.5h1.69v-4.39h5.21v4.39h3v4.29Z"/><path d="M118.32,149a2.9,2.9,0,0,1,1.47.4,2.69,2.69,0,0,1,1,1,2.86,2.86,0,0,1,.4,1.46,2.87,2.87,0,0,1-4.33,2.46,2.64,2.64,0,0,1-1.07-1.06,2.94,2.94,0,0,1-.4-1.44,3,3,0,0,1,.4-1.46,2.68,2.68,0,0,1,1.07-1A2.87,2.87,0,0,1,118.32,149Zm2.62,8.5v14.65h-5.22V157.5Z"/><path d="M131.56,157.06a10.69,10.69,0,0,1,4.41.9,7.46,7.46,0,0,1,1.8,1.13,8.1,8.1,0,0,1,1.44,1.59,7.4,7.4,0,0,1,1.2,4.19,7.23,7.23,0,0,1-1.2,4.16,7.94,7.94,0,0,1-3.25,2.7,10.68,10.68,0,0,1-4.41.92,10.85,10.85,0,0,1-4.42-.92,9.08,9.08,0,0,1-1.81-1.15A7.56,7.56,0,0,1,123.9,169a7.22,7.22,0,0,1-1.2-4.16,7.4,7.4,0,0,1,1.2-4.19,7.83,7.83,0,0,1,3.24-2.72A10.86,10.86,0,0,1,131.56,157.06Zm0,4.5a3.31,3.31,0,0,0-1.77.46,2.7,2.7,0,0,0-1.18,1.19,3.54,3.54,0,0,0-.4,1.66,3.18,3.18,0,0,0,3.08,3.27h.28a3.25,3.25,0,0,0,2.46-.93,3.15,3.15,0,0,0,.9-2.34,3.55,3.55,0,0,0-.4-1.66,2.81,2.81,0,0,0-1.18-1.19,3.31,3.31,0,0,0-1.77-.51Z"/><path d="M147.42,157.5v1.9h.06a5.2,5.2,0,0,1,2-1.84,6.35,6.35,0,0,1,2.73-.53,6.19,6.19,0,0,1,3.15.74,4.52,4.52,0,0,1,1.8,2.11,8.44,8.44,0,0,1,.57,3.23v9h-5.22v-7.81a4.86,4.86,0,0,0-.46-2.29q-.4-.87-1.88-.87-2.72,0-2.71,3.39v7.59H142.2V157.5Z"/><g id="_Group_" data-name=" Group "><path class="cls-1" d="M147.3,116.74c4.22,8.61-2.88,18.26-13.43,18.26h-26.2L106,128.55,95.13,83.89l-.33.33,12.78-14.68c3.21-3.51,4.82-8.6,1.29-11.8s-8.47-1.07-11.67,2.45L84.09,74,38.39,67.5l-.12.14L67,7.9c5-10.49,21.77-10.54,26.91-.07Z"/><path class="cls-2" d="M71.66,87l-7,7.34-.28.32-39.19,40c-8.9-1.54-14.37-10.14-10.61-17.95L36.62,71Z"/></g></g></g></g></g></svg>